<mxfile host="app.diagrams.net" modified="2021-10-22T08:46:57.446Z" agent="5.0 (Macintosh; Intel Mac OS X 10_15_7) AppleWebKit/537.36 (KHTML, like Gecko) Chrome/94.0.4606.81 Safari/537.36" etag="Ln3j4RFoLkNRnyhBaSkS" version="15.5.2" type="github">
  <diagram id="hs6mLLeURSB0dvGaTy_q" name="Page-1">
    <mxGraphModel dx="1722" dy="941" grid="1" gridSize="10" guides="1" tooltips="1" connect="1" arrows="1" fold="1" page="1" pageScale="1" pageWidth="827" pageHeight="1169" math="0" shadow="0">
      <root>
        <mxCell id="0" />
        <mxCell id="1" parent="0" />
        <mxCell id="DSfeMCaSi8syM3B5AKMl-22" value="" style="rounded=0;whiteSpace=wrap;html=1;strokeColor=default;fillColor=none;" vertex="1" parent="1">
          <mxGeometry x="580" y="160" width="1090" height="990" as="geometry" />
        </mxCell>
        <mxCell id="DSfeMCaSi8syM3B5AKMl-96" value="" style="rounded=0;whiteSpace=wrap;html=1;strokeColor=default;fillColor=none;" vertex="1" parent="1">
          <mxGeometry x="680" y="200" width="790" height="580" as="geometry" />
        </mxCell>
        <mxCell id="DSfeMCaSi8syM3B5AKMl-100" value="" style="rounded=0;whiteSpace=wrap;html=1;strokeColor=#d79b00;fillColor=#ffe6cc;align=center;" vertex="1" parent="1">
          <mxGeometry x="690" y="220" width="290" height="440" as="geometry" />
        </mxCell>
        <mxCell id="DSfeMCaSi8syM3B5AKMl-101" value="" style="rounded=0;whiteSpace=wrap;html=1;strokeColor=#d6b656;fillColor=#fff2cc;align=center;" vertex="1" parent="1">
          <mxGeometry x="1088" y="220" width="350" height="440" as="geometry" />
        </mxCell>
        <mxCell id="DSfeMCaSi8syM3B5AKMl-44" value="" style="rounded=0;whiteSpace=wrap;html=1;strokeColor=default;fillColor=none;dashed=1;" vertex="1" parent="1">
          <mxGeometry x="720" y="355" width="230" height="40" as="geometry" />
        </mxCell>
        <mxCell id="DSfeMCaSi8syM3B5AKMl-48" value="" style="rounded=0;whiteSpace=wrap;html=1;dashed=1;strokeColor=default;fillColor=none;align=left;" vertex="1" parent="1">
          <mxGeometry x="701" y="295" width="269" height="255" as="geometry" />
        </mxCell>
        <mxCell id="DSfeMCaSi8syM3B5AKMl-2" value="" style="dashed=0;outlineConnect=0;html=1;align=center;labelPosition=center;verticalLabelPosition=bottom;verticalAlign=top;shape=mxgraph.weblogos.chrome" vertex="1" parent="1">
          <mxGeometry x="110" y="370" width="39.68" height="40" as="geometry" />
        </mxCell>
        <mxCell id="DSfeMCaSi8syM3B5AKMl-3" value="" style="html=1;verticalLabelPosition=bottom;labelBackgroundColor=#ffffff;verticalAlign=top;shadow=0;dashed=0;strokeWidth=1;shape=mxgraph.ios7.misc.iphone;strokeColor=#c0c0c0;" vertex="1" parent="1">
          <mxGeometry x="160" y="362.5" width="27.5" height="55" as="geometry" />
        </mxCell>
        <mxCell id="DSfeMCaSi8syM3B5AKMl-8" value="CDN" style="rounded=0;whiteSpace=wrap;html=1;" vertex="1" parent="1">
          <mxGeometry x="260" y="380" width="51.85" height="20" as="geometry" />
        </mxCell>
        <mxCell id="DSfeMCaSi8syM3B5AKMl-9" value="WAF" style="rounded=0;whiteSpace=wrap;html=1;" vertex="1" parent="1">
          <mxGeometry x="350" y="380" width="51.85" height="20" as="geometry" />
        </mxCell>
        <mxCell id="DSfeMCaSi8syM3B5AKMl-18" value="" style="group" vertex="1" connectable="0" parent="1">
          <mxGeometry x="450" y="360" width="60" height="70" as="geometry" />
        </mxCell>
        <mxCell id="DSfeMCaSi8syM3B5AKMl-19" value="" style="rounded=0;whiteSpace=wrap;html=1;" vertex="1" parent="DSfeMCaSi8syM3B5AKMl-18">
          <mxGeometry width="60" height="70" as="geometry" />
        </mxCell>
        <mxCell id="DSfeMCaSi8syM3B5AKMl-20" value="" style="sketch=0;aspect=fixed;html=1;points=[];align=center;image;fontSize=12;image=img/lib/mscae/Route_Filter.svg;strokeColor=default;fillColor=none;" vertex="1" parent="DSfeMCaSi8syM3B5AKMl-18">
          <mxGeometry x="10.949999999999989" y="4" width="38.1" height="32" as="geometry" />
        </mxCell>
        <mxCell id="DSfeMCaSi8syM3B5AKMl-21" value="负载均衡&lt;br&gt;SLB" style="text;html=1;strokeColor=none;fillColor=none;align=center;verticalAlign=middle;whiteSpace=wrap;rounded=0;" vertex="1" parent="DSfeMCaSi8syM3B5AKMl-18">
          <mxGeometry y="40" width="60" height="30" as="geometry" />
        </mxCell>
        <mxCell id="DSfeMCaSi8syM3B5AKMl-75" style="edgeStyle=orthogonalEdgeStyle;curved=1;rounded=0;orthogonalLoop=1;jettySize=auto;html=1;exitX=1;exitY=0.5;exitDx=0;exitDy=0;" edge="1" parent="1" source="DSfeMCaSi8syM3B5AKMl-24" target="DSfeMCaSi8syM3B5AKMl-62">
          <mxGeometry relative="1" as="geometry">
            <mxPoint x="1120" y="380" as="targetPoint" />
            <Array as="points">
              <mxPoint x="1050" y="330" />
              <mxPoint x="1050" y="422" />
            </Array>
          </mxGeometry>
        </mxCell>
        <mxCell id="DSfeMCaSi8syM3B5AKMl-80" value="路由转发" style="edgeLabel;html=1;align=center;verticalAlign=middle;resizable=0;points=[];" vertex="1" connectable="0" parent="DSfeMCaSi8syM3B5AKMl-75">
          <mxGeometry x="-0.0288" y="-13" relative="1" as="geometry">
            <mxPoint as="offset" />
          </mxGeometry>
        </mxCell>
        <mxCell id="DSfeMCaSi8syM3B5AKMl-77" style="edgeStyle=orthogonalEdgeStyle;curved=1;rounded=0;orthogonalLoop=1;jettySize=auto;html=1;exitX=1;exitY=0.5;exitDx=0;exitDy=0;entryX=0;entryY=0.5;entryDx=0;entryDy=0;" edge="1" parent="1" source="DSfeMCaSi8syM3B5AKMl-24" target="DSfeMCaSi8syM3B5AKMl-49">
          <mxGeometry relative="1" as="geometry" />
        </mxCell>
        <mxCell id="DSfeMCaSi8syM3B5AKMl-79" value="路由转发" style="edgeLabel;html=1;align=center;verticalAlign=middle;resizable=0;points=[];" vertex="1" connectable="0" parent="DSfeMCaSi8syM3B5AKMl-77">
          <mxGeometry x="0.0213" relative="1" as="geometry">
            <mxPoint x="1" y="1" as="offset" />
          </mxGeometry>
        </mxCell>
        <mxCell id="DSfeMCaSi8syM3B5AKMl-78" style="edgeStyle=orthogonalEdgeStyle;curved=1;rounded=0;orthogonalLoop=1;jettySize=auto;html=1;exitX=1;exitY=0.5;exitDx=0;exitDy=0;entryX=0;entryY=0.5;entryDx=0;entryDy=0;" edge="1" parent="1" source="DSfeMCaSi8syM3B5AKMl-24" target="DSfeMCaSi8syM3B5AKMl-67">
          <mxGeometry relative="1" as="geometry" />
        </mxCell>
        <mxCell id="DSfeMCaSi8syM3B5AKMl-81" value="路由转发" style="edgeLabel;html=1;align=center;verticalAlign=middle;resizable=0;points=[];" vertex="1" connectable="0" parent="DSfeMCaSi8syM3B5AKMl-78">
          <mxGeometry x="0.1235" y="2" relative="1" as="geometry">
            <mxPoint y="1" as="offset" />
          </mxGeometry>
        </mxCell>
        <mxCell id="DSfeMCaSi8syM3B5AKMl-24" value="" style="rounded=0;whiteSpace=wrap;html=1;strokeColor=default;fillColor=none;dashed=1;" vertex="1" parent="1">
          <mxGeometry x="720" y="310" width="230" height="40" as="geometry" />
        </mxCell>
        <mxCell id="DSfeMCaSi8syM3B5AKMl-25" value="命名空间： &lt;br&gt;ns-hozon-plantfom-{env}" style="text;html=1;strokeColor=none;fillColor=none;align=left;verticalAlign=middle;whiteSpace=wrap;rounded=0;dashed=1;" vertex="1" parent="1">
          <mxGeometry x="701" y="260" width="160" height="30" as="geometry" />
        </mxCell>
        <mxCell id="DSfeMCaSi8syM3B5AKMl-29" value="nacos 注册中心/配置中心" style="text;html=1;strokeColor=none;fillColor=none;align=left;verticalAlign=middle;whiteSpace=wrap;rounded=0;dashed=1;" vertex="1" parent="1">
          <mxGeometry x="783" y="355" width="157" height="35" as="geometry" />
        </mxCell>
        <mxCell id="DSfeMCaSi8syM3B5AKMl-30" value="IAM 认证中心" style="text;html=1;strokeColor=none;fillColor=none;align=center;verticalAlign=middle;whiteSpace=wrap;rounded=0;dashed=1;" vertex="1" parent="1">
          <mxGeometry x="772.5" y="405" width="97.5" height="30" as="geometry" />
        </mxCell>
        <mxCell id="DSfeMCaSi8syM3B5AKMl-31" value="" style="sketch=0;html=1;dashed=0;whitespace=wrap;fillColor=#2875E2;strokeColor=#ffffff;points=[[0.005,0.63,0],[0.1,0.2,0],[0.9,0.2,0],[0.5,0,0],[0.995,0.63,0],[0.72,0.99,0],[0.5,1,0],[0.28,0.99,0]];shape=mxgraph.kubernetes.icon;prIcon=pod;align=left;" vertex="1" parent="1">
          <mxGeometry x="746.66" y="318.75" width="25.84" height="27.5" as="geometry" />
        </mxCell>
        <mxCell id="DSfeMCaSi8syM3B5AKMl-32" value="" style="shape=image;verticalLabelPosition=bottom;labelBackgroundColor=#ffffff;verticalAlign=top;aspect=fixed;imageAspect=0;image=data:image/png,iVBORw0KGgoAAAANSUhEUgAAALQAAAClCAYAAAD1R9cMAAAgAElEQVR4Ae2d6XMcRZrG93/C6q7WZaklS7YwtonYmC87A1iyJN/AwOwxO/t9P+zHHcAGnxhmAA/DaQ5jzGmwLR/YaoEFno3YHWzm2tnxP5AbT2Y+WVnZWUdL3a1udXZExltXV2W9+dOjp96urv47EV4hA+soA3+3js4lnErIgAhAtxGC3y8stPFovXmoAHQbx/2bg/NtPFpvHioA3aZxv/vCCbH04KR4c/fuNh2xNw8TgG7DuH/7H/8ulh7cLGo7JsXZnQ+LYD1al/QAdOtya/b8u58/IdUZCg3bEVTapKbpEwHopqc0ucMftNUAzGi3Du4Wz1WioNLJNDVtLgDdtFT6d0SQ7QjbEVTan6/VLg1ArzaDGe+/+8JxYzVsoN/f+bBU6cuHDmW8O6xaSQYC0CvJWoH3sKphg8xp+GjYjmA9CiSywU0C0A0mrOjm9oUgQbYjgQ7Wo2hGi20XgC6Wp4a2ci8EbZA5DR9NqEMZr6H0Zm4cgM5Mz8pWEtpkVHVoLmO1A1C/ET5sWVmiPe8KQHuSsppFWd6ZMCPaPhpQfx/u81hN2s17A9AmFaufSKtq2CDb07AdR/or0noghtfqMxCAXn0OzR5sWItMn51+WBypROJIfyTjwuHDZl9hYmUZCECvLG917/JdCNb0p4NpcMN2HO2viKOVSBzTMViPutQ2tCAA3VC60jdOgzZv+dF+BfMxHd/eE+7GS89y/poAdH6Ocrdo1DvbkJ+bfkQQZhkHKuECMTfj6RsEoNNzU2hN0aqGDbE9ff2JR6XdgOU4NlCR02f27Cl07LBRfQYC0PU5aWhJDGeyzhwvV3fZ8X5odznq0YD5uIQ5kvF4f0XcWbjSUD/CxioDAehVkOC7EHSBLTIPmO12YqAi0MKr8QwEoBvPmXlHEViLbAMfDYAB9YmBfjl9cqBfXH02lPFMsgtOBKALJsrdbDUXgi7ktw7OS4ipzCcHKgLt+cH+YD3cxOfMB6BzEuRbffeUus+5tmPCe78zgc2rQ3M9gD45qJV5sN/ADKjf27vX14WwLCUDAeiUxGQtXgLIdsv5AIWAZ8XzM4+I5wcr4nmtzFDnU7JVxN0r4QIxazzsdQFoOxsFpn84dVzUtm+ygJ5U06uE+qNdOyXMgBhQE+YXhvrFe3tDGa/A0MhNAtBFM6W3W0rA3Dylhu1QEFOZ+wVgZrv27LMN9rQ3Nw9ANzDud58/JiTQGmpXqbM9dX6d+tRgRQIMsAnyixrqF4cGGuhp724agC449hLmbZvEEhqAllDDetj2Qyv2Cu3Hx7t2GpABNGBG+5Vu158LKp03XAHovAzp9UvbxkXtgXEJdG3buASaCs2oLhQnhVHqHfyUsFiE7YgVmTAPaKgHJNg/hAvEzBELQGemR62U6gyYJdAK6oRSG7Venacm0FRkxl8P9wvVBsTZfaGMlzVkAeis7Oh1ta1jEmYZPUrNC8U6pd6u69QpSs06tF3O+2R2p1TiXw8rRUYEzC9tjGNQ6fRBC0Cn50auuXvyqFJmrdDSdiTUWtkP46v1BWOiTp0CtA0ypz/ZtVMQYkbAbLdz+/fl9Lp3VwegM8b+7omjYmnrmEgo9APj8by0IJuE8dS4YNwxYdWpOQ8rUqxevXxwd50ivzTcL16WUKuI6RvhAtE7cgFob1rUwqX7NcwW1NJHU6EZcZGoLxRzlbqAWttqjGkAbLdXNg4ItPCqz0AAuj4ncgnUuTZVVQp9/1gxpQbg26HYKOs1qtRxnfrT2Z1KkbUyA+ZXRhTUiID59Mig+DBYj7rRC0DXpUSIe9evKpih0ICZzaPUtCOsgEj7UVevdqof0n6kl/JuPvlYUpE1xFTm0yMAWrUfrlz1nEHvLgpAe8b+7vEjYmmqGkMNpSbcFtSE2UR6asaUenUN1Y8MT43yna3EVOTTWplNHBkU5w/s95xB7y4KQDtjD5hrW6qyGainYqWWim1B7fXUEmhPvVreoVfsk0UFcazESpEHpdWA3UD7zciQbEGl40EMQMe5kFNLW0ZFbcuoUmhGKjQjPTWiXfVgvZoKzegodVy3tqzIg9YnjA9Ois/nZkSsxMozE2IZRwHzoHh1dEh8FFTajGIA2qRCiLvHoM6jglDXK3VsQ6SvplJrkG24qdz8uDzxyaJ9L3ViGqU95a3x5VkqMaNS5EHxGwnzkIT51REVF488Z51J704GoPXY37t2VdQ2jyiYN8dQS9tBpd6ivbRPqQm3q9ieTxZlFcSqVyc+YcSNTTsmBOrRVGJGKjIjYP7t6JBg/EO4QAy/JEstk+q8eURCXds8KmTT9iNLqVkFkReGUGraDku1qdZSpRuoV1+Ym1E+2VZkAKwbYLbbJ4+GC8Sg0EKIO0efE0uTI6I2uVEsaail7aBiG4Wmt66KJVwoNkOpza2odt1a3QNyYW7a2AqlxIMG4Nc0zK9VhwSmX6sOy/iHq71dxgtACyFqGmYVqdKISqljT21fMALq2FMbpdYXjGlKrTy1/mQxp169fGBeAm2rMKYlwFZ8vTosXq8OyfZpj6t0zwMNda5NbIwV2lbqyRGxJKHW3nrLqLjxDz+Sz3NW3tpRaig2vDSrII79qKtXs/rBqG9ssj01YY4VWSkxFVnCPDok3gDUOvaySvc00PeuXhG1iWEJNKCG5VAN9qNeqVEB4e+inH3kIV3aW5lSS18NkGVzvwkTl/NgO4wia3sh1XgUiqyUGTC/UVVQY/qzRw/w0qDnYk8DfefIsxrmYbEEmAG3hjrhqbVSf/qjvzdAA+yv56ctqC1P3ZBS62/CyHtArFtRdRUEtgNAA15GKjEjYH5zTEGN+GZ1WHx99EjPwYwT7lmgJcybhkUNTap0hlJPjohrB/fJp+wDZDx1HxEqHX8Io/y0vFD0fLIoPbVV2mPlI9NTb98kbh2YM0pMn6wUGQBriKsKYoCM9taYan/swQvEngW6Nj4sauNDCmgJ9UY5vQTrMaEVG1UPwHxgn3zK/pGorGBmrETi2qP7LaitKgju/XCrIJmeOv07i1/MTSuPbGyFq8hDEmIDc3VYvD02LD5/rPesR08Cfee5ZxXMANqG2qg1oKaf3ihhPhpFCmqt0PK3UfT0N/PTFtSWp/aV9gC1R6mp2Mpbw1PH9uPLuZmER6YS015QkRkBM1uvqXTPAV0Hs1bqJcBswU2lPj3UL45GZXGsEsmI30OBUtvx7MM/EUvyhiYqNKNTBWH1I+0eECq4cw/I8v65Oo8MeI0iS4A3ire0MgPmM+MbJdQXekylew7o2wf2JtWZKi2j9tSAe9OweH/jgDimYT4WRQINcANmKjYjPDb8dMJTm7v2UuyHR6nTvrMoVdmB2KfIhPmMhHpYIP6ph7x0TwF959nDojY2JBbHtNVgJMxU6PEhB2al0ITbVmxbub+ZmzY3NtXdA5KwH43Xqy/OzxgF9ikxFBnwvmPFd8aGxbvjGwVir7x6CuhadUjUqoMSaoAtW0KhFehXtm4WxyoaYhnLllJjGmpdD/kHD/8kcQ9I/OGLc381vyzA6FNqbT9Yr649+ZjxxfTHUoWhxLoBZsAr47iCGUCj3TrWG2W8ngEa6rwImC2o5bwF9qKG+3ilLI7jtwMjHa15KLILM+eh3NJ6ZN4DYn1c3kAVZHnfnAT6zJjyxpmKbGAeFu9tUkAj9oL16Amg7xw+rJRZAm1BDbgJtLYf7w/3ixMSYMCcbEq185Ub1sO+W29pSnnr+rv2Urw1Lgp148flmKcSxzAPW4qswH3XwLxRwgyQ2b58/OC6dx49AfR3+3ZLoBdHB1TUSk2FZjw7VFEwR2UrRuK4Vmqj3FRsK9rK/cFDP07eA4L7q3Ejk3vXHhWakVUQVjuceGlu2u+RDcRUZBUJsh3/fG1934237oG+c/iQqAFktqqCWnppS7EB88lKWZzQMJuIZY5S28oN1cZ8rN5q+uvZnfpuvZG4+pF6f3WKUls+Gkq9vHdWvGPBS3/MaIPrm35/YkRcXOcqve6BXhwZEIsj/RJoTNdGB0Ws1DHcz1fK4mRUMlAruOP5ExWl1BJuCT2Vm7ak3nPjBqfE3Xpp3poKzUildurVAFrBm6bEsTIDXkCNiHbWisvHjq5b67Gugb5z6JCEWUENsAcUzEat4acHxWsDkXg+AtC6SbiT8wBZNiq4pdxpCn79wD551x6hrr+/Oln9wEfl3o/LodRarS/PTxtP7FNhG2IbZgDN9sHkSAC62zIgYd5Y0UD3K5g9Sn1uuCKej0oCCs0IpaZiM9KOuDFW7LL02pynLflmdjoB9Wq/CbMwPyPe2xQrMaHOUmSADIgZP5gYEd8eX58qvW4VehEwbwTIvqbU+txQRZyKyrIBZkxDqX3NqDdVHDHHcwPucw/9WH8jpv7+6vibMJZS44u4rlKjXq1VennvrjqFphIzUokZATMglnFyRJzT7S/XrnWbTuX2d10CfeeZZwSAvjmsofYo9cWN/eJUVBIvVBTQCmZCXRKnqNgScFexy0bBCbWKtudWin3l0KGmf2eRtoIRIANeRioxI2AGxIyY/nDzqFj46for461LoGOYATShTio1QLYbldqN9cpdSii4VG6f59Zem5Jy+/EDBZTauRfEp9T3jwnYDqqxDXFCkQGwblRkxg8nRwXbelPpdQc01PnmcKQVmpFQK099bjASLwLoqGyiUmoqNqNrR2IFV7bEVe54HooNdeZLPvdD319tvl3uVkHcOrW0H1ZJD1UQlO/27Epc4GUq8eSoVGcoMiA+b2JVzl954lF2cV3EdQW0hHkoEovDsBs2zLQfFUGYX9QwMwJuW7E57So25+uVO+m9bZhJivxCrvyKl/7OovneIr5dHter3bv2XE8NH21DXESJCfN5DTXA/ki379bRBeK6AvrmUFksDkVCxgTUCu5zA5H4VaUsADEjlNqG2qfchN323AA+hrrecxNiN95+DNbD/Za5U69OU2rryU1X53cZTwygbTtBj0yIVawKwPzR5qpUaUQA/bGObj+7dX7dAK3UuaxgllBHUqVtpf4VQHZaAm6otke5JeQNeO47lxdSeZDfNE98uxzfjEl+yzyufqR46qkxcXV+xkBswwx4bXvhU2Qb5o8B9ZaquLZOrMe6AXpxyIa5XqnfqCiYf62BNlEvp2K70VVszktLom2KrdzXLN+cRvXtx/bXf7tcQ80PYVS9Gs/Y89wDsqUqfTSVmJFKzOhV5C1ambdUBWD+xIr/uw7KeOsC6DtPPy1uDiqgYTfYlP2IxIcDZQGAfQ2KTbht9U4ot2VLqOC0IfTaiO/Nz6cxXLfc/s6iUuh6pbbv2ItvbFI1a3yiKNXYVeTN6sJPeWQFb50ibwbMVQkzgGa7/mT3XyB2PdAS5oGyWATQg1DmpFIrmEsK2rKKMdjWvFRqvR0gX4FyZ1kNl+h7V6/6nwNiKzWqILihKeVpqFfnp6UfNkqsPbL0xlRiCW9SiT/ZPCo+BciMW6pyHsu6XaW7HuibAyVxc6CsmgP1RanMJfFSxVZnC+IU1SbwtmJzOqHclue+9kxconPhTZuX1sN6uA0fclPnqZ2nofKbMN/89GDiAo9VC6hv3BTMVGFEgGu3z7ZUBdtXTz6W1t2uWN7VQH//1FNiUQJdEosS6lJCqV+KSuLlSlkgKqjro7QbRrkJO2NsR2hLfMp97ZlnVjTY6lFk1hOb6p6xp6sfKfXqW7tnZNXCrlbgAs/1xkaJN8cgA2BA/dnUmIT5cyv+14ljKzqfTnhTVwOt1BkKzRYr9fmKgvllB2rCzUg1bjRSsRFX87pzBA+L5NOb4meBKLX21av57Rd8aUDVkpUaq2qF8caWR7bVWEJsKTLA/nyqKj6XcUxNT42Jv3bpBWLXAg11vtnfZ2CmUsN+AOZXKmVBmBltxW5MubVSGyWnxy6J6yuwGu4fwO1H9wv5HBA8PkE+Yy+lTu1R6uu7ZzyKrNSXykwlVlHZC1uRDcwW1Dd+1p3WoyuB/v6XGmYAbUENpT5f6ROvRCXTAPMrkYYbaq0Vm5FKDUsim7En9N1J+2EreTNgBtzSeuhngSi1Tj65yXhqU6+Of2Hg1vyMqVLQJ+crMpVYq/MU5tmq4sLUmGx/vd59d+N1JdA3KxsUyASaUPf3idMaZkYqtRuh0DbUVGzGIp7bVdrVzEvrAajxCDJG6amVDfE9DRUfly8DaE+14rOpdI9sFBlWQ4JcFRfuV5AjXpiqii/uHxPdqNJdB7RUZwDtgfpMpSSBBsxstlrb00q5tWJnKbdWbCo5FfqrFV4IZkEP6yFhlkBnPw1Vqrb++Yzre2bUBV6qN7aV2IJYKzEVWcE8JmEG0GjdptJdB7QEmTAz9m8QH1X6xOlyn/iNhlnGcgz26agsbQiV+7RWaNoRKngR5W4FzK71MJ7aeRoqP4RRiq2qIPDRvmqFuuCjvUjGpCIreKnMAPnLrePii6kxsfizx7P+BjtuXVcBnVBnqnRlg/g4UiADYrdRqd1oq7U9rZQ7xXNDraNSSwcx8dxq46uzPfXy/LQuvbnVCluZlS8GtLYSQ52pxl9uVdOIdvvvk91TxusaoNNgvlTpE69GfeLVCmB2owL8dLk+GqV2PDeUWwJOBXfijSZUNfL+IsxTUPEkJ5T0jKfmLw3UV0GkF2aVglHDi7Kc7Y2NEk8pcKHEBPji1nE5jXhx65i4pOP/dckFYtcAbayGpcxY9mpUiltFT1vRVWzOu4rNecBM2F3lvtEC3+yDW1Y9+OBIqrSB2q1Vq3tAbuyeMRd45kLP8chUYkZCzAiA7QaYL2moa//YHdajK4D+/X/+Ul4E3ojuUxeDGmpYjd9GJdUkxH3it05Uyl0yCk6gEY1ya6uCeYLteu7zDdx45IO00WW38XheQj0+JOTzqw3UsVLTUy/PTcsPRWAh6hVZ24qpqlRfemSAnKbIhPnyAwpqxG5Q6a4A2qfOn0R94rWoLGFmNHBryI16U7E1uITchpvTAFrCblVKsOyHjHucG4W1yPZGpeUDJJPPrZalPfnpYuytl+d2mvqxVGB6Y8tOUIkZqcaEV6mxshlYBojttvRPPy3S9TXdpuOB9nlnKDMgfi0q1UFdB7ej2FTwRjz3jadXdq/Gakc28WsDUGcqtkepUfW4sWdGXuAlPXLsiRtVZMC8sE1BjbjwwLj4W4d76Y4G2gcz1Pp1CXJJvG6gBtgKbkaodR3c2m9jnVRvKrcVqdSM5+eK3+O8WoB977+Npy9Jlcazq12oUatGU0p9UwNNBWakEjMmlXgsocK2IgNgtCvbNpmI6U5+dTTQN5wLQMD8fgSQS+INwFzWUFsxVbkryp4YW5Kp3LHnXuvBS1qPGOrYUys7gt9ZvDW7M7daQXsBcAE2AQa4UpF9ED8wLq5u2ySu6Pg/J4+vdVpSj9+xQPvU+dNKn4YZQCuwAbfdoNArUW6CzhIgFPzmGlkNd7QS1oOeOmE/YqVWtiK9WmFDbMNMNaYiQ4ll0xADaLZr2zZ1rPXoSKD/dvFSopoBZTYwVxTABBpKTcW2o4TaUu4Y8uSFZJ0t0crdKTATbmk99EPZlQWx7Afg1vXqxT27EvXjXEXW3jhhKxxFBsiAWMbtE3L61j935gViRwLtqvPlSp9UZEDMpuB14U7O1ys3vTaj/8ISat1pr3tXrlheWv/oEb01LhJ1W378gPwwRPlk2IpkpcK2FbzQoxJTlanEjIBZNg3z9e0T4vq2TeLeV9c7LU2d99PILsxQ57NRn3izApgtsKVS94k3qNgVKjWhrp/3ee6EcpdV9WSxQ6yGS4v8FS9AnFBqBTd/Z3F5dqfxxra9cKsVuYq8fSKhyIAYUBPmr7ZPiOUOVOmOU2gAbLdPow3izahkGhQa81RqN0rlJuTmArK45+5UmAn37f17vUDbNoTemJFKTJ9MJWakEjMaRdbKLCGGKusGmNm+P9VZF4gdBTQ/ESTQn0UbxFsAuNynYhRHBXWs3ErBS5Zia6X2wJ20K0rJ6bkJTqdGWI9F/NhRilJL67Fnl6wf8wKPkVUKRgAMeGUsoMjXt2/SIG8SNzTUN3ZMdFSqOgZo90IQML8dlcRbGuI4Ylms2LZ65yq3pdhJqBX8tQ61Gi4xRqX5C1700jou73okrhvrOjLUmArM6FVi2gpLhanGjIAZ7eYOFTtJpTsGaNc7S5jLfQpqKwJmwp2u3CXjuQ3kdZ6bXru7YCbc8NH89S56av7OIoCWdoLVCgtmW5Ex7fPGVGJc+BmIdyibAUVWME+aCLDv3eiMC8SOANqF+VxUEm9HgJmN8yXxFuGWYMdwK9Ch3H3Gb9vq7XptztNzE5RuifICEdYDzaPUX++ZTVdk5wLP540BMpU4hpgwK3UGyKpNitv/8kRHpK4jgKZnRrxQ6RNnoj6Br1MBaDdmKje9NmNBz/3HS+kPV+yIUUrpxO39eyTMrlLDXxPoa0W8cUEl9inz4o5JCfXig5MdodJrDvR3//pvpqoBmN+JVJNQA2i7VajYjD7lVheOtCWxcvt991KX+GYf07I2rX9E1FXq5ZmHVe2YNWTLG+cqsuWRYxWGGit4GQGz3X7387VX6TUF2r4QvGLBLKGulCTM7zjRVWx73tgR2hKt1ITb9dyfzc75OOmqZcp6DHqVmh6ZXthEc8GnqhVJ5aWtSHpkG2JADkVe3DEhajJOyljbMSHuvnBiTfO3pkAvbr3fqPOHUZ94NypJhWakWtsxodhUbw19o567W62GS4ysephfxVVww1d/s2eXvOjjhR2j8cYeJSbctjLbKgyIFcyEeFIsPZhsbv/aOb9mQNdmdhmYL0QbxHtRSbxb1lAz+iB3FJsKbit1Ee/99dONP1yxnQPTyLHuXVnw/ob58vTD3rqxgrZeiZMwx944VmIqsoq1HQpkqLQN9VpajzUDmheChBlAS6gBdkaz1dqe9iu38tpnjPdWnvvrLvbNaaDfOXxYQm3/hjl8dKJaYSkyobaV2LYVPiUGuC68Nsj29FqV8dYE6NrMjFTnhUjd3/xe1Cfvc0Yk2FRsQo74TnlDui2hcmsbYiu3hN2qmqRB0e3Lv0PVw1gPVae+tXfW1IupwG6kJ2Z0Fdko8Y6JhBJnwf27nz+5JulsO9C3f/ELYzVws/77GmY1DZUm3EqxE4B7lBsqnee5sQ0VfD2qM8lR1mPAgnpQ3Nq7S9eKWTPOr1ZQiRlt5W1kei1Uuu1AL27dKoH+ogJw+8TZioKaEWDHUBNuKreK8NoJBS/oudczzIQaKr04qqBGfRo+moqs7EXsjdMVWSlxlgIXAXstvHRbgabV+AIgy1aqi7FiK5hj5Qb49apNBU/z3bbP5qCv91gD0BpqWJA6b8z6sV1y0/54tRC7oLe7jNdWoPFcDcD8gWwK5g8iHSsx3I0rtwLdKDcvMC3l/mYdXgim/WHeW9BVDw318t5ZWWpLVWRdpaBXdqFU85vFSte303q0Deja9Iy4WlEwnzNQx3ADcqXaiDHccpm0JUqhYwWnYtOW+NUbyt1LMBPy7/btUSo9OiDwWy6oJUN9GZutxP4/AlXOa6f1aAvQgBllOjwcRsJc1lHOl4xiZyq347Ub8dwc5F6KUOnFEViPQbG88yHzSR7Ay1baZE05C9RG1rVLpdsCNJT5Sw0zgPY1wFyv3FRwqrej3IkqCT03FVvFXlRn/uHK2jT9tPPhRyMwNmPbdql0y4Femp6RMH9YAbAbEjB/QKWWsSTMPJW7DKBjBYf9KOq5oeC9DDOhhvWAUn+7bzZRQwakebaj2evbodItB/pqZYMAzLhXA82nzvYyQs1lfuUm5K5y6/lKSVzcNcsx7elI67H8yE/qgG6G8jayj3aodEuBhnfGj/h8GG0wkUqtYp+E3cCbUOy+WLETyxXM+BJAluf+0+XLPQ2yffJ3Dh0S3z7y0JoDDfh/aPHdeC0DGjBfrPSJ85FqUGdMU6ndSKiLRr9yK899q4dKdDa4WdPf7d0tvt27qyOgbqX1aBnQeLL++fIG8ZEGGb+BIpVaQh0rtlJwKrWyJ4CaSm4DTjuiot9zXwpWw8s1rMdyJtArrzMr21H8/a20Hi0B+runnpYgA2a7Ua3tGEOu1Hthdlb42uXZWYG2/NTTYvmpZ5Lt6WcELEawGV6WzcI/vPxSRyg0/gBapdItAfovly6Lv1y+LBj/rOcZTYbDRNszAA9794Xj0sviY+nkPJczFlsPOFfSWnHyLQG6FR0N+wwZKJKBAHSRLIVtuiYDAeiuGarQ0SIZCEAXyVLYpmsyEIDumqEKHS2SgQB0kSyFbbomAwHorhmq0NEiGQhAF8lS2KZrMhCA7pqhCh0tkoEAdJEshW26JgMB6K4ZqtDRIhkIQBfJUtimazIQgO6aoQodLZKBAHSRLIVtuiYDAeiuGarQ0SIZCEAXyVLYpmsyEIDumqEKHS2SAQn0wsKCuO+++9rW5ubmxKFDh2Qr0sl29o3HQh/ZT18f83KG9Wkv7pvHakdEvn0vLM86vvuevO2xr7RjufvKmy9yLPd4awK0m8C8BLjbt3ve17+VAJ33nlael+8cAFQeND7o8t6D88Af7WpeRY6B47jn1RFA+zpmJ6OVA110367i5sHpbo/zKXqsVmznDjzzmwcOt3Nj3vtwDiuFusi+sX/fOXUM0GkdXGsQCJc7OL0ONMalKHi+P273D4TzyDNznhXT9tlRQKdBnXVi7VoXgCZyydhMqFcLM3pmgEbHWt2KwpdMmVKCte5bO4DGMVp1nmmKhuNljYs7Fr75vH1w/2l9wPJmwGyA9nWyVcuKnHzaibeqT9gvjsnE+2KrgUZe1uKVNx5F+5S3H+bUPc+8vPN9iEW4kApdtNPN2i7vr9E96WYdN28/dvLc6VYD7e4/r6/NWp8HYiPHydsXc8rxbTbM6Gsd0DgIGg7azGb/deWdOE+YyWSfWhnz/shc4NAXDpAv2ufL8/Bt5y5rZs6xL18/2B/EvEUfTQUAAALaSURBVLGwty0ynbc/nm9evu3t8s7B7pcBGm8qehAebCWRA5b1Xmxjv7K2bde6dgHdqvNxc8r85gHI7RqJefsseo5uzov0wQBd9CDN2C7vD8dNfjOOudp9uMmFAGTt06cqWdu3Y52bVwCSB18RiHzb5O0373zdfPuO4VsmgV7twfM61+h6N/GNvr8V27t9WgnQeX/Irei3vU8fJHlj74Om6LLVnG/RY7jbBaAL3sPiJm4lQGMfeQDZALZi2j2PvP642xedz9tvkXPz/ZfLO34AOgdon6ohqSsFmu/FgGPfzWxFIHGByAPP3b7I/GqU2T0H9K+RVyGg0cGV/LXYHcH785LHk3FPgst9kX3D/pvd7P670ziWrz9chvXtfuGYeTC5fcobE3f7rPkix2d+cNy8vtrbZh3XXlcI6GYODjuZFRsF2j6hdk0jJ1nn0MycNXJOeZC4+2oW0Hn5sHNl5ybv+Hyfy4R7HpwvBDSS1IzXSjvPk/LFZvWt0fPLG0B70Brd90q3z+sT8ue+8sbE3d43n7cPe9x8eSn6fmyX9yoEtN2hdky7Hc86ZrcAnXUO7VznApEHk7u9O5/3fp4bxskHM/fXyH74Hl8MQPuyUmBZnhq6g8eBXevonloeSO729nzee3muRUWn6P6wXze/7JcEOm9w2LF2RZyY/co6btFk2ftrxnReztyEZ51DO9e5554Hkbs955H3Iv12x5LvT4t5ebWP6dt3ADotsznL8xLfiUD7AGgUaJxXq2BmyvNymwW1BBo7yjsxeyermUYy8hLiJj7reNjXWrzykt6JQLt9KjLudm7zztkeJ3cM7f0Unc7jhMezj2WA5kGwslWNCUXMOga3K9Ind1u+p9Ux7xzc42edb6vXZeWo6HnkbWefQ9bx3Lzkzdv7zZrmfuqA5ooQQwa6MQMB6G4ctdDn1AwEoFNTE1Z0YwYC0N04aqHPqRkIQKemJqzoxgz8PxGvISOTbnwXAAAAAElFTkSuQmCC;" vertex="1" parent="1">
          <mxGeometry x="880" y="313.75" width="35.46" height="32.5" as="geometry" />
        </mxCell>
        <mxCell id="DSfeMCaSi8syM3B5AKMl-33" value="APISIX API网关" style="text;html=1;strokeColor=none;fillColor=none;align=left;verticalAlign=middle;whiteSpace=wrap;rounded=0;dashed=1;" vertex="1" parent="1">
          <mxGeometry x="782.5" y="310" width="97.5" height="40" as="geometry" />
        </mxCell>
        <mxCell id="DSfeMCaSi8syM3B5AKMl-37" value="MSP-Admin 微服务治理" style="text;html=1;strokeColor=none;fillColor=none;align=center;verticalAlign=middle;whiteSpace=wrap;rounded=0;dashed=1;" vertex="1" parent="1">
          <mxGeometry x="772.5" y="448.25" width="147.5" height="30" as="geometry" />
        </mxCell>
        <mxCell id="DSfeMCaSi8syM3B5AKMl-39" value="" style="sketch=0;html=1;dashed=0;whitespace=wrap;fillColor=#2875E2;strokeColor=#ffffff;points=[[0.005,0.63,0],[0.1,0.2,0],[0.9,0.2,0],[0.5,0,0],[0.995,0.63,0],[0.72,0.99,0],[0.5,1,0],[0.28,0.99,0]];shape=mxgraph.kubernetes.icon;prIcon=pod;align=left;" vertex="1" parent="1">
          <mxGeometry x="746.66" y="360" width="25.84" height="27.5" as="geometry" />
        </mxCell>
        <mxCell id="DSfeMCaSi8syM3B5AKMl-40" value="" style="sketch=0;html=1;dashed=0;whitespace=wrap;fillColor=#2875E2;strokeColor=#ffffff;points=[[0.005,0.63,0],[0.1,0.2,0],[0.9,0.2,0],[0.5,0,0],[0.995,0.63,0],[0.72,0.99,0],[0.5,1,0],[0.28,0.99,0]];shape=mxgraph.kubernetes.icon;prIcon=pod;align=left;" vertex="1" parent="1">
          <mxGeometry x="746.66" y="406.25" width="25.84" height="27.5" as="geometry" />
        </mxCell>
        <mxCell id="DSfeMCaSi8syM3B5AKMl-41" value="" style="sketch=0;html=1;dashed=0;whitespace=wrap;fillColor=#2875E2;strokeColor=#ffffff;points=[[0.005,0.63,0],[0.1,0.2,0],[0.9,0.2,0],[0.5,0,0],[0.995,0.63,0],[0.72,0.99,0],[0.5,1,0],[0.28,0.99,0]];shape=mxgraph.kubernetes.icon;prIcon=pod;align=left;" vertex="1" parent="1">
          <mxGeometry x="746.66" y="449.5" width="25.84" height="27.5" as="geometry" />
        </mxCell>
        <mxCell id="DSfeMCaSi8syM3B5AKMl-45" value="" style="rounded=0;whiteSpace=wrap;html=1;strokeColor=default;fillColor=none;dashed=1;" vertex="1" parent="1">
          <mxGeometry x="720" y="400" width="230" height="40" as="geometry" />
        </mxCell>
        <mxCell id="DSfeMCaSi8syM3B5AKMl-46" value="" style="rounded=0;whiteSpace=wrap;html=1;strokeColor=default;fillColor=none;dashed=1;" vertex="1" parent="1">
          <mxGeometry x="720" y="444.25" width="230" height="40" as="geometry" />
        </mxCell>
        <mxCell id="DSfeMCaSi8syM3B5AKMl-49" value="" style="rounded=0;whiteSpace=wrap;html=1;dashed=1;strokeColor=default;fillColor=none;align=left;" vertex="1" parent="1">
          <mxGeometry x="1129" y="256.25" width="300" height="63.75" as="geometry" />
        </mxCell>
        <mxCell id="DSfeMCaSi8syM3B5AKMl-54" value="命名空间： &lt;br&gt;ns-hozon-dms-{env}" style="text;html=1;strokeColor=none;fillColor=none;align=left;verticalAlign=middle;whiteSpace=wrap;rounded=0;dashed=1;" vertex="1" parent="1">
          <mxGeometry x="1129" y="226.25" width="160" height="30" as="geometry" />
        </mxCell>
        <mxCell id="DSfeMCaSi8syM3B5AKMl-55" value="命名空间： &lt;br&gt;ns-hozon-mp-{env}" style="text;html=1;strokeColor=none;fillColor=none;align=left;verticalAlign=middle;whiteSpace=wrap;rounded=0;dashed=1;" vertex="1" parent="1">
          <mxGeometry x="1130" y="330" width="160" height="30" as="geometry" />
        </mxCell>
        <mxCell id="DSfeMCaSi8syM3B5AKMl-57" value="命名空间： &lt;br&gt;ns-hozon-{application}-{env}" style="text;html=1;strokeColor=none;fillColor=none;align=left;verticalAlign=middle;whiteSpace=wrap;rounded=0;dashed=1;" vertex="1" parent="1">
          <mxGeometry x="1130" y="446.25" width="160" height="30" as="geometry" />
        </mxCell>
        <mxCell id="DSfeMCaSi8syM3B5AKMl-58" value="" style="sketch=0;html=1;dashed=0;whitespace=wrap;fillColor=#2875E2;strokeColor=#ffffff;points=[[0.005,0.63,0],[0.1,0.2,0],[0.9,0.2,0],[0.5,0,0],[0.995,0.63,0],[0.72,0.99,0],[0.5,1,0],[0.28,0.99,0]];shape=mxgraph.kubernetes.icon;prIcon=pod;align=left;" vertex="1" parent="1">
          <mxGeometry x="1161.08" y="263.37" width="25.84" height="27.5" as="geometry" />
        </mxCell>
        <mxCell id="DSfeMCaSi8syM3B5AKMl-59" value="" style="sketch=0;html=1;dashed=0;whitespace=wrap;fillColor=#2875E2;strokeColor=#ffffff;points=[[0.005,0.63,0],[0.1,0.2,0],[0.9,0.2,0],[0.5,0,0],[0.995,0.63,0],[0.72,0.99,0],[0.5,1,0],[0.28,0.99,0]];shape=mxgraph.kubernetes.icon;prIcon=pod;align=left;" vertex="1" parent="1">
          <mxGeometry x="1219" y="263.37" width="25.84" height="27.5" as="geometry" />
        </mxCell>
        <mxCell id="DSfeMCaSi8syM3B5AKMl-60" value="" style="sketch=0;html=1;dashed=0;whitespace=wrap;fillColor=#2875E2;strokeColor=#ffffff;points=[[0.005,0.63,0],[0.1,0.2,0],[0.9,0.2,0],[0.5,0,0],[0.995,0.63,0],[0.72,0.99,0],[0.5,1,0],[0.28,0.99,0]];shape=mxgraph.kubernetes.icon;prIcon=pod;align=left;" vertex="1" parent="1">
          <mxGeometry x="1279" y="263.37" width="25.84" height="27.5" as="geometry" />
        </mxCell>
        <mxCell id="DSfeMCaSi8syM3B5AKMl-61" value="" style="sketch=0;html=1;dashed=0;whitespace=wrap;fillColor=#2875E2;strokeColor=#ffffff;points=[[0.005,0.63,0],[0.1,0.2,0],[0.9,0.2,0],[0.5,0,0],[0.995,0.63,0],[0.72,0.99,0],[0.5,1,0],[0.28,0.99,0]];shape=mxgraph.kubernetes.icon;prIcon=pod;align=left;" vertex="1" parent="1">
          <mxGeometry x="1344" y="264.37" width="25.84" height="27.5" as="geometry" />
        </mxCell>
        <mxCell id="DSfeMCaSi8syM3B5AKMl-62" value="" style="rounded=0;whiteSpace=wrap;html=1;dashed=1;strokeColor=default;fillColor=none;align=left;" vertex="1" parent="1">
          <mxGeometry x="1129" y="365" width="300" height="63.75" as="geometry" />
        </mxCell>
        <mxCell id="DSfeMCaSi8syM3B5AKMl-63" value="" style="sketch=0;html=1;dashed=0;whitespace=wrap;fillColor=#2875E2;strokeColor=#ffffff;points=[[0.005,0.63,0],[0.1,0.2,0],[0.9,0.2,0],[0.5,0,0],[0.995,0.63,0],[0.72,0.99,0],[0.5,1,0],[0.28,0.99,0]];shape=mxgraph.kubernetes.icon;prIcon=pod;align=left;" vertex="1" parent="1">
          <mxGeometry x="1161.08" y="372.12" width="25.84" height="27.5" as="geometry" />
        </mxCell>
        <mxCell id="DSfeMCaSi8syM3B5AKMl-64" value="" style="sketch=0;html=1;dashed=0;whitespace=wrap;fillColor=#2875E2;strokeColor=#ffffff;points=[[0.005,0.63,0],[0.1,0.2,0],[0.9,0.2,0],[0.5,0,0],[0.995,0.63,0],[0.72,0.99,0],[0.5,1,0],[0.28,0.99,0]];shape=mxgraph.kubernetes.icon;prIcon=pod;align=left;" vertex="1" parent="1">
          <mxGeometry x="1219" y="372.12" width="25.84" height="27.5" as="geometry" />
        </mxCell>
        <mxCell id="DSfeMCaSi8syM3B5AKMl-65" value="" style="sketch=0;html=1;dashed=0;whitespace=wrap;fillColor=#2875E2;strokeColor=#ffffff;points=[[0.005,0.63,0],[0.1,0.2,0],[0.9,0.2,0],[0.5,0,0],[0.995,0.63,0],[0.72,0.99,0],[0.5,1,0],[0.28,0.99,0]];shape=mxgraph.kubernetes.icon;prIcon=pod;align=left;" vertex="1" parent="1">
          <mxGeometry x="1279" y="372.12" width="25.84" height="27.5" as="geometry" />
        </mxCell>
        <mxCell id="DSfeMCaSi8syM3B5AKMl-66" value="" style="sketch=0;html=1;dashed=0;whitespace=wrap;fillColor=#2875E2;strokeColor=#ffffff;points=[[0.005,0.63,0],[0.1,0.2,0],[0.9,0.2,0],[0.5,0,0],[0.995,0.63,0],[0.72,0.99,0],[0.5,1,0],[0.28,0.99,0]];shape=mxgraph.kubernetes.icon;prIcon=pod;align=left;" vertex="1" parent="1">
          <mxGeometry x="1344" y="373.12" width="25.84" height="27.5" as="geometry" />
        </mxCell>
        <mxCell id="DSfeMCaSi8syM3B5AKMl-111" style="edgeStyle=orthogonalEdgeStyle;rounded=0;orthogonalLoop=1;jettySize=auto;html=1;exitX=0.5;exitY=1;exitDx=0;exitDy=0;entryX=0.481;entryY=1.009;entryDx=0;entryDy=0;entryPerimeter=0;fontSize=11;" edge="1" parent="1" source="DSfeMCaSi8syM3B5AKMl-67" target="DSfeMCaSi8syM3B5AKMl-48">
          <mxGeometry relative="1" as="geometry">
            <Array as="points">
              <mxPoint x="1279" y="620" />
              <mxPoint x="830" y="620" />
            </Array>
          </mxGeometry>
        </mxCell>
        <mxCell id="DSfeMCaSi8syM3B5AKMl-112" value="服务注册&lt;br&gt;配置读取&lt;br&gt;认证接入&lt;br&gt;路由注册&lt;br&gt;..." style="edgeLabel;html=1;align=left;verticalAlign=middle;resizable=0;points=[];fontSize=11;" vertex="1" connectable="0" parent="DSfeMCaSi8syM3B5AKMl-111">
          <mxGeometry x="0.1955" relative="1" as="geometry">
            <mxPoint x="11" as="offset" />
          </mxGeometry>
        </mxCell>
        <mxCell id="DSfeMCaSi8syM3B5AKMl-67" value="" style="rounded=0;whiteSpace=wrap;html=1;dashed=1;strokeColor=default;fillColor=none;align=left;" vertex="1" parent="1">
          <mxGeometry x="1129" y="483.5" width="300" height="63.75" as="geometry" />
        </mxCell>
        <mxCell id="DSfeMCaSi8syM3B5AKMl-68" value="" style="sketch=0;html=1;dashed=0;whitespace=wrap;fillColor=#2875E2;strokeColor=#ffffff;points=[[0.005,0.63,0],[0.1,0.2,0],[0.9,0.2,0],[0.5,0,0],[0.995,0.63,0],[0.72,0.99,0],[0.5,1,0],[0.28,0.99,0]];shape=mxgraph.kubernetes.icon;prIcon=pod;align=left;" vertex="1" parent="1">
          <mxGeometry x="1161.08" y="490.62" width="25.84" height="27.5" as="geometry" />
        </mxCell>
        <mxCell id="DSfeMCaSi8syM3B5AKMl-69" value="" style="sketch=0;html=1;dashed=0;whitespace=wrap;fillColor=#2875E2;strokeColor=#ffffff;points=[[0.005,0.63,0],[0.1,0.2,0],[0.9,0.2,0],[0.5,0,0],[0.995,0.63,0],[0.72,0.99,0],[0.5,1,0],[0.28,0.99,0]];shape=mxgraph.kubernetes.icon;prIcon=pod;align=left;" vertex="1" parent="1">
          <mxGeometry x="1219" y="490.62" width="25.84" height="27.5" as="geometry" />
        </mxCell>
        <mxCell id="DSfeMCaSi8syM3B5AKMl-70" value="" style="sketch=0;html=1;dashed=0;whitespace=wrap;fillColor=#2875E2;strokeColor=#ffffff;points=[[0.005,0.63,0],[0.1,0.2,0],[0.9,0.2,0],[0.5,0,0],[0.995,0.63,0],[0.72,0.99,0],[0.5,1,0],[0.28,0.99,0]];shape=mxgraph.kubernetes.icon;prIcon=pod;align=left;" vertex="1" parent="1">
          <mxGeometry x="1279" y="490.62" width="25.84" height="27.5" as="geometry" />
        </mxCell>
        <mxCell id="DSfeMCaSi8syM3B5AKMl-71" value="" style="sketch=0;html=1;dashed=0;whitespace=wrap;fillColor=#2875E2;strokeColor=#ffffff;points=[[0.005,0.63,0],[0.1,0.2,0],[0.9,0.2,0],[0.5,0,0],[0.995,0.63,0],[0.72,0.99,0],[0.5,1,0],[0.28,0.99,0]];shape=mxgraph.kubernetes.icon;prIcon=pod;align=left;" vertex="1" parent="1">
          <mxGeometry x="1344" y="491.62" width="25.84" height="27.5" as="geometry" />
        </mxCell>
        <mxCell id="DSfeMCaSi8syM3B5AKMl-82" value="订单服务" style="text;html=1;strokeColor=none;fillColor=none;align=center;verticalAlign=middle;whiteSpace=wrap;rounded=0;dashed=1;" vertex="1" parent="1">
          <mxGeometry x="1144" y="288.75" width="60" height="30" as="geometry" />
        </mxCell>
        <mxCell id="DSfeMCaSi8syM3B5AKMl-83" value="库存服务" style="text;html=1;strokeColor=none;fillColor=none;align=center;verticalAlign=middle;whiteSpace=wrap;rounded=0;dashed=1;" vertex="1" parent="1">
          <mxGeometry x="1204" y="288.75" width="60" height="30" as="geometry" />
        </mxCell>
        <mxCell id="DSfeMCaSi8syM3B5AKMl-84" value="维修服务" style="text;html=1;strokeColor=none;fillColor=none;align=center;verticalAlign=middle;whiteSpace=wrap;rounded=0;dashed=1;" vertex="1" parent="1">
          <mxGeometry x="1261.92" y="288.75" width="60" height="30" as="geometry" />
        </mxCell>
        <mxCell id="DSfeMCaSi8syM3B5AKMl-85" value="配件服务" style="text;html=1;strokeColor=none;fillColor=none;align=center;verticalAlign=middle;whiteSpace=wrap;rounded=0;dashed=1;" vertex="1" parent="1">
          <mxGeometry x="1326.92" y="288.75" width="60" height="30" as="geometry" />
        </mxCell>
        <mxCell id="DSfeMCaSi8syM3B5AKMl-86" value="..." style="text;html=1;strokeColor=none;fillColor=none;align=center;verticalAlign=middle;whiteSpace=wrap;rounded=0;dashed=1;" vertex="1" parent="1">
          <mxGeometry x="1379" y="269.62" width="46.08" height="15" as="geometry" />
        </mxCell>
        <mxCell id="DSfeMCaSi8syM3B5AKMl-87" value="用户中心" style="text;html=1;strokeColor=none;fillColor=none;align=center;verticalAlign=middle;whiteSpace=wrap;rounded=0;dashed=1;" vertex="1" parent="1">
          <mxGeometry x="1144" y="393.25" width="60" height="30" as="geometry" />
        </mxCell>
        <mxCell id="DSfeMCaSi8syM3B5AKMl-88" value="支付中心" style="text;html=1;strokeColor=none;fillColor=none;align=center;verticalAlign=middle;whiteSpace=wrap;rounded=0;dashed=1;" vertex="1" parent="1">
          <mxGeometry x="1204" y="393.25" width="60" height="30" as="geometry" />
        </mxCell>
        <mxCell id="DSfeMCaSi8syM3B5AKMl-89" value="订单中心" style="text;html=1;strokeColor=none;fillColor=none;align=center;verticalAlign=middle;whiteSpace=wrap;rounded=0;dashed=1;" vertex="1" parent="1">
          <mxGeometry x="1266.92" y="393.25" width="60" height="30" as="geometry" />
        </mxCell>
        <mxCell id="DSfeMCaSi8syM3B5AKMl-90" value="主数据中心" style="text;html=1;strokeColor=none;fillColor=none;align=center;verticalAlign=middle;whiteSpace=wrap;rounded=0;dashed=1;" vertex="1" parent="1">
          <mxGeometry x="1326.92" y="393.25" width="71.08" height="31.75" as="geometry" />
        </mxCell>
        <mxCell id="DSfeMCaSi8syM3B5AKMl-91" value="..." style="text;html=1;strokeColor=none;fillColor=none;align=center;verticalAlign=middle;whiteSpace=wrap;rounded=0;dashed=1;" vertex="1" parent="1">
          <mxGeometry x="1379" y="375" width="46.08" height="15" as="geometry" />
        </mxCell>
        <mxCell id="DSfeMCaSi8syM3B5AKMl-92" value="..." style="text;html=1;strokeColor=none;fillColor=none;align=center;verticalAlign=middle;whiteSpace=wrap;rounded=0;dashed=1;" vertex="1" parent="1">
          <mxGeometry x="1144" y="511" width="60" height="30" as="geometry" />
        </mxCell>
        <mxCell id="DSfeMCaSi8syM3B5AKMl-93" value="..." style="text;html=1;strokeColor=none;fillColor=none;align=center;verticalAlign=middle;whiteSpace=wrap;rounded=0;dashed=1;" vertex="1" parent="1">
          <mxGeometry x="1201.92" y="511" width="60" height="30" as="geometry" />
        </mxCell>
        <mxCell id="DSfeMCaSi8syM3B5AKMl-94" value="..." style="text;html=1;strokeColor=none;fillColor=none;align=center;verticalAlign=middle;whiteSpace=wrap;rounded=0;dashed=1;" vertex="1" parent="1">
          <mxGeometry x="1261.92" y="511" width="60" height="30" as="geometry" />
        </mxCell>
        <mxCell id="DSfeMCaSi8syM3B5AKMl-95" value="..." style="text;html=1;strokeColor=none;fillColor=none;align=center;verticalAlign=middle;whiteSpace=wrap;rounded=0;dashed=1;" vertex="1" parent="1">
          <mxGeometry x="1326.92" y="511" width="60" height="30" as="geometry" />
        </mxCell>
        <mxCell id="DSfeMCaSi8syM3B5AKMl-97" value="容器调度平台ACK" style="rounded=1;whiteSpace=wrap;html=1;strokeColor=#330000;fillColor=#dae8fc;align=center;" vertex="1" parent="1">
          <mxGeometry x="680" y="180" width="120" height="30" as="geometry" />
        </mxCell>
        <mxCell id="DSfeMCaSi8syM3B5AKMl-99" value="&lt;h2&gt;&lt;b&gt;业务应用/系统层&lt;/b&gt;&lt;/h2&gt;不同的业务系统通过不同的命名空间区分管理" style="rounded=0;whiteSpace=wrap;html=1;strokeColor=#9673a6;fillColor=#e1d5e7;align=center;" vertex="1" parent="1">
          <mxGeometry x="1088" y="640" width="350" height="130" as="geometry" />
        </mxCell>
        <mxCell id="DSfeMCaSi8syM3B5AKMl-102" value="" style="rounded=0;whiteSpace=wrap;html=1;strokeColor=default;fillColor=none;" vertex="1" parent="1">
          <mxGeometry x="670" y="910" width="800" height="200" as="geometry" />
        </mxCell>
        <mxCell id="DSfeMCaSi8syM3B5AKMl-103" value="公共CICD" style="rounded=1;whiteSpace=wrap;html=1;strokeColor=#330000;fillColor=#dae8fc;align=center;" vertex="1" parent="1">
          <mxGeometry x="669" y="880" width="120" height="30" as="geometry" />
        </mxCell>
        <mxCell id="DSfeMCaSi8syM3B5AKMl-107" value="" style="rounded=0;whiteSpace=wrap;html=1;strokeColor=default;fillColor=none;dashed=1;" vertex="1" parent="1">
          <mxGeometry x="720.5" y="495" width="230" height="40" as="geometry" />
        </mxCell>
        <mxCell id="DSfeMCaSi8syM3B5AKMl-108" value="" style="sketch=0;html=1;dashed=0;whitespace=wrap;fillColor=#2875E2;strokeColor=#ffffff;points=[[0.005,0.63,0],[0.1,0.2,0],[0.9,0.2,0],[0.5,0,0],[0.995,0.63,0],[0.72,0.99,0],[0.5,1,0],[0.28,0.99,0]];shape=mxgraph.kubernetes.icon;prIcon=pod;align=left;" vertex="1" parent="1">
          <mxGeometry x="746.66" y="501.25" width="25.84" height="27.5" as="geometry" />
        </mxCell>
        <mxCell id="DSfeMCaSi8syM3B5AKMl-109" value="EAI 批数据交互中心" style="text;html=1;strokeColor=none;fillColor=none;align=left;verticalAlign=middle;whiteSpace=wrap;rounded=0;dashed=1;" vertex="1" parent="1">
          <mxGeometry x="782.5" y="497.5" width="157" height="35" as="geometry" />
        </mxCell>
        <mxCell id="DSfeMCaSi8syM3B5AKMl-110" value="" style="group;fillColor=#e3c800;fontColor=#000000;strokeColor=#B09500;" vertex="1" connectable="0" parent="1">
          <mxGeometry x="690" y="640" width="290" height="130" as="geometry" />
        </mxCell>
        <mxCell id="DSfeMCaSi8syM3B5AKMl-98" value="" style="rounded=0;whiteSpace=wrap;html=1;strokeColor=#b85450;fillColor=#f8cecc;align=center;" vertex="1" parent="DSfeMCaSi8syM3B5AKMl-110">
          <mxGeometry width="290" height="130" as="geometry" />
        </mxCell>
        <mxCell id="DSfeMCaSi8syM3B5AKMl-106" value="&lt;p style=&quot;line-height: 0.9&quot;&gt;&lt;/p&gt;&lt;pre style=&quot;font-size: 11px&quot;&gt;&lt;h2&gt;平台公共层&lt;/h2&gt;&lt;font style=&quot;font-size: 11px&quot;&gt;1.API统一接入&lt;br&gt;&lt;/font&gt;&lt;font style=&quot;font-size: 11px&quot;&gt;2.配置中心，注册中心&lt;br&gt;&lt;/font&gt;&lt;font style=&quot;font-size: 11px&quot;&gt;3.统一认证中心&lt;br&gt;&lt;/font&gt;&lt;font style=&quot;font-size: 11px&quot;&gt;4.微服务治理&lt;br&gt;&lt;/font&gt;&lt;font style=&quot;font-size: 11px&quot;&gt;5.数据交互中心&lt;/font&gt;&lt;/pre&gt;&lt;pre style=&quot;font-size: 11px&quot;&gt;..&lt;/pre&gt;&lt;p&gt;&lt;/p&gt;" style="text;html=1;strokeColor=none;fillColor=none;spacing=6;spacingTop=-18;whiteSpace=wrap;overflow=hidden;rounded=0;align=left;verticalAlign=top;" vertex="1" parent="DSfeMCaSi8syM3B5AKMl-110">
          <mxGeometry x="11" y="5.785000000000004" width="259" height="107.965" as="geometry" />
        </mxCell>
        <mxCell id="DSfeMCaSi8syM3B5AKMl-117" value="push" style="edgeStyle=orthogonalEdgeStyle;rounded=0;orthogonalLoop=1;jettySize=auto;html=1;exitX=0.9;exitY=0.5;exitDx=0;exitDy=0;exitPerimeter=0;entryX=0;entryY=0.5;entryDx=0;entryDy=0;fontSize=11;curved=1;" edge="1" parent="1" target="DSfeMCaSi8syM3B5AKMl-124">
          <mxGeometry relative="1" as="geometry">
            <mxPoint x="728.5" y="945" as="sourcePoint" />
            <mxPoint x="806.25" y="965" as="targetPoint" />
          </mxGeometry>
        </mxCell>
        <mxCell id="DSfeMCaSi8syM3B5AKMl-114" value="" style="shape=image;html=1;verticalAlign=top;verticalLabelPosition=bottom;labelBackgroundColor=#ffffff;imageAspect=0;aspect=fixed;image=https://cdn1.iconfinder.com/data/icons/feather-2/24/gitlab-128.png;fontSize=11;strokeColor=#330000;fillColor=none;" vertex="1" parent="1">
          <mxGeometry x="840" y="500" width="128" height="128" as="geometry" />
        </mxCell>
        <mxCell id="DSfeMCaSi8syM3B5AKMl-119" value="代码仓库" style="text;html=1;strokeColor=none;fillColor=none;align=center;verticalAlign=middle;whiteSpace=wrap;rounded=0;fontSize=11;" vertex="1" parent="1">
          <mxGeometry x="796" y="971.4" width="60" height="30" as="geometry" />
        </mxCell>
        <mxCell id="DSfeMCaSi8syM3B5AKMl-120" value="开发人员" style="text;html=1;strokeColor=none;fillColor=none;align=center;verticalAlign=middle;whiteSpace=wrap;rounded=0;fontSize=11;" vertex="1" parent="1">
          <mxGeometry x="691" y="960" width="60" height="30" as="geometry" />
        </mxCell>
        <mxCell id="DSfeMCaSi8syM3B5AKMl-130" value="" style="edgeStyle=orthogonalEdgeStyle;curved=1;rounded=0;orthogonalLoop=1;jettySize=auto;html=1;fontSize=11;" edge="1" parent="1" source="DSfeMCaSi8syM3B5AKMl-122" target="DSfeMCaSi8syM3B5AKMl-119">
          <mxGeometry relative="1" as="geometry">
            <Array as="points">
              <mxPoint x="770" y="1059" />
              <mxPoint x="770" y="986" />
            </Array>
          </mxGeometry>
        </mxCell>
        <mxCell id="DSfeMCaSi8syM3B5AKMl-131" value="dockerfile&lt;br&gt;jenkinsfile" style="edgeLabel;html=1;align=center;verticalAlign=middle;resizable=0;points=[];fontSize=11;" vertex="1" connectable="0" parent="DSfeMCaSi8syM3B5AKMl-130">
          <mxGeometry x="0.2721" y="-5" relative="1" as="geometry">
            <mxPoint x="-2" y="7" as="offset" />
          </mxGeometry>
        </mxCell>
        <mxCell id="DSfeMCaSi8syM3B5AKMl-134" value="" style="edgeStyle=orthogonalEdgeStyle;curved=1;rounded=0;orthogonalLoop=1;jettySize=auto;html=1;fontSize=11;entryX=0;entryY=0.5;entryDx=0;entryDy=0;" edge="1" parent="1" source="DSfeMCaSi8syM3B5AKMl-122" target="DSfeMCaSi8syM3B5AKMl-132">
          <mxGeometry relative="1" as="geometry">
            <Array as="points">
              <mxPoint x="720" y="1060" />
              <mxPoint x="720" y="1055" />
            </Array>
          </mxGeometry>
        </mxCell>
        <mxCell id="DSfeMCaSi8syM3B5AKMl-135" value="构建job" style="edgeLabel;html=1;align=center;verticalAlign=middle;resizable=0;points=[];fontSize=11;" vertex="1" connectable="0" parent="DSfeMCaSi8syM3B5AKMl-134">
          <mxGeometry x="0.3103" relative="1" as="geometry">
            <mxPoint as="offset" />
          </mxGeometry>
        </mxCell>
        <mxCell id="DSfeMCaSi8syM3B5AKMl-122" value="" style="sketch=0;pointerEvents=1;shadow=0;dashed=0;html=1;strokeColor=none;fillColor=#505050;labelPosition=center;verticalLabelPosition=bottom;verticalAlign=top;outlineConnect=0;align=center;shape=mxgraph.office.users.tenant_admin;fontSize=11;" vertex="1" parent="1">
          <mxGeometry x="699.97" y="1040" width="19.31" height="20" as="geometry" />
        </mxCell>
        <mxCell id="DSfeMCaSi8syM3B5AKMl-123" value="" style="sketch=0;pointerEvents=1;shadow=0;dashed=0;html=1;strokeColor=none;labelPosition=center;verticalLabelPosition=bottom;verticalAlign=top;align=center;fillColor=#515151;shape=mxgraph.mscae.system_center.admin_console;fontSize=11;" vertex="1" parent="1">
          <mxGeometry x="701.66" y="934.8" width="35" height="25.2" as="geometry" />
        </mxCell>
        <mxCell id="DSfeMCaSi8syM3B5AKMl-138" style="edgeStyle=orthogonalEdgeStyle;curved=1;rounded=0;orthogonalLoop=1;jettySize=auto;html=1;exitX=1;exitY=0.5;exitDx=0;exitDy=0;entryX=0;entryY=0.5;entryDx=0;entryDy=0;fontSize=11;" edge="1" parent="1" source="DSfeMCaSi8syM3B5AKMl-124" target="DSfeMCaSi8syM3B5AKMl-128">
          <mxGeometry relative="1" as="geometry" />
        </mxCell>
        <mxCell id="DSfeMCaSi8syM3B5AKMl-124" value="" style="shape=image;verticalLabelPosition=bottom;labelBackgroundColor=#ffffff;verticalAlign=top;aspect=fixed;imageAspect=0;image=data:image/png,iVBORw0KGgoAAAANSUhEUgAAACAAAAAmCAYAAAClI5npAAAEEUlEQVRYCa1XyyttURjfhEReZaqkRB4TlCjJgDISZSAjJmIk5VEmRP4B0plIiZLCQApJyUhRmBCFKAkpj5I8vttv3fut1mufsw/3q22t/a3fa++z7YdHRu3v7xO2/1WR9DzTqK6ujmpra832j/ehFU5PC/D+/k5paWmUmppKmP+2oAGtcHpagJ2dHfI8T2zb29u/9SdoRNLTAoyOjkrCyMjIrwNAgwMMDw879bQANTU1klBVVeUkRNOEBgfw05MBXl9fKTk5WRKSkpLo5eUlGj8NCy40OEBiYqJTTwbY2tqSYCatr69rotHsgMs6PK6trVkSMsDAwIBF6O/vtwhBG+CyMY99fX0WXQaoqKiwCOXl5RYhaANcNuaxtLTUoosAd3d3lJCQYBHi4+Pp/v7eIkVqgAMuG/MYFxdH8FJLBFhZWbHATFpdXVXxgebgMN8cFxcXNQ0RoLOz05fQ1dWlEYLsgGMa8z681BIBiouLfQmu300VcM3BYUNzLCws1Cje1dUVpaenU0ZGhu92dnZGj4+PgTZgw2nB6/LyUobwlpaWaG5uTjZck4aGBt8jMo8Q2HAFL3hyeW1tbZSSkkJfX1/cs8apqanAAYD1K3jAC55cXl5enhA3Lw4GYDw6OgocAFi/4osdnlyeegr39va4b43Z2dkRQwDjV9BWvU5PTwVUC1BSUuLHp+bmZk1AFeM5MH4FbcZhDIVCtLGxgd7fFxAeJycnnRozMzOaAOPVERhXQVPFYd7Y2EjX19d2gNjYWHp6erJ0Tk5OLBFTFBizoAVNE4tHNco6AwC2tLSYOvT9/U25ubmWEAtjDRizoMUYc/QNEBMTQ5ubm6YWtba2+ophzSxoQMs0xj7fe7zl5WUnICcnx9QTJJeYKqiSoOHCw5NLPAuQ1AUcGhpinBjPz8+dOHCxpha4Lk3zzIoAIO7u7hKe1yoJz/SLiwtVl/Lz8zUM8OipBY75PgBteJglA2Dh+PhYPEjUEPX19RoHt1F1HXP11gowOCoGDydou0oLAMDDwwNlZWVpAurDY35+XluDEXpcwKrm0Lq5ueFla7QCAPH8/Kyd6szMTPkv9u/moZmgh8K/IbAcAD+N656ipnAGAADv9WVlZVKsu7tb8goKCmQfcy5g2BzcIN8VvgEgio+V6upqIYqL6uDgQHh1dHRII8xRWOMLDxxwg1TYABB4e3uTD6LKykqhubCwIANgjsIajr6pqUlwRDPAn4gBoPHx8UG9vb3CYHp6mm5vb2UAzNGDOV5Go/2sDxSAD2RsbEx86+P9sKioSGyY4/sfX8Kfn58MDTxGFQCq4+Pj1N7eLo4WR4z5xMREYEMTGHUACMzOztLg4CD19PSQ3zuAaeS3/6MAEDs8PKRwr3B+hmb/D5LB9xrOMVoeAAAAAElFTkSuQmCC;" vertex="1" parent="1">
          <mxGeometry x="814.21" y="952" width="23.58" height="28" as="geometry" />
        </mxCell>
        <mxCell id="DSfeMCaSi8syM3B5AKMl-139" style="edgeStyle=orthogonalEdgeStyle;curved=1;rounded=0;orthogonalLoop=1;jettySize=auto;html=1;exitX=1;exitY=0.5;exitDx=0;exitDy=0;entryX=0.5;entryY=0;entryDx=0;entryDy=0;fontSize=11;" edge="1" parent="1" source="DSfeMCaSi8syM3B5AKMl-128" target="DSfeMCaSi8syM3B5AKMl-129">
          <mxGeometry relative="1" as="geometry" />
        </mxCell>
        <mxCell id="DSfeMCaSi8syM3B5AKMl-128" value="" style="shape=image;verticalLabelPosition=bottom;labelBackgroundColor=#ffffff;verticalAlign=top;aspect=fixed;imageAspect=0;image=data:image/png,iVBORw0KGgoAAAANSUhEUgAAACsAAAAzCAYAAAAO2PE2AAAHWElEQVRoBc3ZP+iNXxwH8DsYKIPBYDAoRFEMimJQFEVRDIqiKIqiKAZFGQwGg4GiDAaKogwGymAwGAwUZTAYDAaDQVHOr9epz+3c8z3Pvc/X/arfp27Pvc9zzue8P//e53OeO0hzIK9evUqXL19Ou3fvTitXrkwLFixIg8Egf5YuXZo2bdqUTp06lR48eJB+/Pjx1ysO/nbmt2/f0tWrV9OyZcuGwEqAa9asyc/mz58/8nzhwoXpzJkz6evXr7NeetZgeebixYupBrFkyZJ0/fr1xIhaPnz4kG7evJm2bt06BL5o0aL0+PHjeujY37MC+/Tp0+wtC50+fTodPXo0zZs3L509e7Z3eD99+pQOHz6c54kEA/tKL7BCtn///iSEV65cycAssnr16vT69eu+a42Me/v27TCF+gKeCFbxCLEQfv78OS8oDTZv3twM+QiiCT84gcGi0yclxoJ9+fJl9ubJkyfT79+/89LPnj1L27ZtSz9//pwApd9jaSGtRE1uj5NOsN+/f88elZchAO/bt693fsa8SVdelb/r168fOqU1pxMs3ly+fHn24Pv375MPrnzz5k1Lz9T3FB3AWKNLmmB5cMWKFZnMXSmRVxs2bOjSk+8z5N69e0lU+sqFCxcyDQYV8m6XzACLJ9euXZsByqPz58+nd+/eZQAURu6WCt07duxYnsOwLVu2lI87vyswhXvu3Lm0bt264XxM0ZIZYI8cOZInqdKo/phot6rveSavGXbp0qWkKH36SG34tWvX8trosSUjYHlVuIFqbYet+7wAKO/PhRw8eDDt2rWrqWoE7MOHD7NlXUmOYmrhBR6ZK8HrrXXoHwGLAeRcK9S8Lq9qobyLc+sw13PL32VRim75O8aNgI18jYfl1bZacm75rOs7Zugr0onhRLq10qo32Pv378+q6bDo8ePHZ2AVIdt1Lbo5+UqwSatIR8DynDRoyd27dxPAs5EbN24050inVoooLNsvOmutNYJMMw2sECgaxROcB2yfZqM0Ri7bVOqQ6uBu3749HGqNJ0+e5JMGh+3ZsydZr5YRsFgA2PrDCPnUt5U7dOhQNpRn5Z/CLUWIFy9ePOzajLEmFnj+/HlSOxPBxtaqmcaz8kjeUaTA7N99RLMTBusvhLaWHTt2pAMHDuTb1mJAsMpEsEJhAeDQhi3w1q1bObcc+nhHD9tXGPrly5fO4ejRZtLidGBxfi3DNJDQwFpAPkV/AKR+1jPK51JQm36j7uQU2Fg2kCPyiKjUjRs35mZYj6Ap9ry1WUwLXiSdRMrGW3dX/o41hp5V6XaOkMhPRSWk/0o4Rl7L4RBOG7uDKQKhjpDooEiLD0PpXF1RmaImQEaEa/1Dz3qgkByxybjiqJX0+S1yteF+ozeUFadkFNnVD4+AZZ2E/xe5qVBjU0FVQMZppMxPm5GCbskIWEpUfNl4A75z586p89apWE0oJg6xtQZ4HgYSfcrdrgZoBCxrVD2lFHqhBnxXM9yyvrwHwIsXL4aGSq0yapyDy3nYGjaFcZGdAdZivKBCFZxPqzJLUF3fhVcd0KFobKv428e2GvpFUjfGo8Z0SRNsDNbIUMgDsxVFIry8JT8RvSgFQBHkEHUSzjAmCry13liwYX2rXaOs675n8s/eX3M0YFKhZobY7oMVZg2WV3ij64Rg9ylzsF5AZBSUPuPRo0d5C7WNxqcEvH379vxaqtZR/h7rWQOFRb6VikOBPtV7r9YzY9yPri3CH9fSAVjB/XFepW8iWPmqQoNmAmhcea91TInnrnRIKZ0U0o8c9UyaRD8bLWI5t/w+EazBKEzydwna6duY1zrikMqztt2uKJk3FqyJvBaha7VtlPCOTsmJoq/w7t69e7NuKRGvj8YB7gQrXPgPUEVmowg+bAESahGw27VOBjFHqO/cuZPrgO7o7vBsrNcFeAZYFp84cSKD1GDovtzDlZTLL4vVlKTavRH0nGFoy19JXpV+/PgxHwj9S4MdIlKuMZYxDI5NpAV4BKw/OGKwcxRrS4l3qHYgi7r674s3SwBd3xkvvxUskA6WaM13PEvseuHhkjE8y2DlJqstgqZa5x+DeVOjIdwMsdfrf/3npcDokdeKBiD6dFCYAM2ZY2fTCwQ4eusC5eE4vJYOG+gDeIhiRdKnj3XIE25hB5aBdZ5aMCLBo0CKGmB1CilMfFxKvBYo8QwiZFw+jjZKRb6z2IYhhHR0zVWoKp13dWEcoi8ouVYDIxqlRFNe3htYrHUcLgeN+86jvFx7yxzejR2Mccbybm1YpE65jvSJ9wpxf4CWWgvFgD5XlVunQTlPEfGcQgS2Xo+na46OCJR6choYPI0orq6i5N1Vq1blHkJoeUw01Qkj/RehYMsNBxcbY24pGaxmZBpR2TXN0IeGUJwXbaUYzwAG+shpxRoCOIapZWAgKxA9D//tp85FRYMFYhvlfUeYCC8jYi3PSgw87l+iWgZxGghWmOaqj6AvOHIaXWVaBOjBnz9/0q9fv/53nwBYXv8DUFihpu+RNcgAAAAASUVORK5CYII=;" vertex="1" parent="1">
          <mxGeometry x="915.21" y="962" width="25.29" height="30" as="geometry" />
        </mxCell>
        <mxCell id="DSfeMCaSi8syM3B5AKMl-150" style="edgeStyle=orthogonalEdgeStyle;curved=1;rounded=0;orthogonalLoop=1;jettySize=auto;html=1;exitX=1;exitY=0.5;exitDx=0;exitDy=0;entryX=0;entryY=0.5;entryDx=0;entryDy=0;fontSize=11;" edge="1" parent="1" source="DSfeMCaSi8syM3B5AKMl-129" target="DSfeMCaSi8syM3B5AKMl-145">
          <mxGeometry relative="1" as="geometry" />
        </mxCell>
        <mxCell id="DSfeMCaSi8syM3B5AKMl-129" value="" style="shape=image;verticalLabelPosition=bottom;labelBackgroundColor=#ffffff;verticalAlign=top;aspect=fixed;imageAspect=0;image=data:image/png,iVBORw0KGgoAAAANSUhEUgAAACcAAAAnCAYAAACMo1E1AAAGJklEQVRYCc1YW0hVTRQ+2cW0IsHUvIQpqWXaDSUysJAoAw3KGwhBkKioDwaGRmEXM3qxxKxIym4gKWXYQ14QlKQkfbCoIOmiWGpmUKZmprXim581zT5n73OO5g8tOM7s2Wt965uZNWvW1kT/sJhmgtvw8DAdO3aM9u7dS0+fPp0JSIHxV+R6enpo9+7dtHDhQjKZTPK3atUqun379l+TnBa5x48fU2RkJM2ZM0cSUslxf9myZXTq1Klpk5wSubt371JgYCA5ODhYJcXkuHVxcaH9+/cTtn8qYhe548ePk7e395QIMTG1dXZ2pujoaOru7raLoyG5r1+/UkpKCmHWqgOjflZWljgMRu/V8dmzZ9PatWvp4cOHVklakOvt7aVt27aRk5OTXaTYaWFhIWFC/GxPO2vWLEJcVlVV6ZLUkGtpaaH58+dPyQGTQEy9fPlyWrbASE5OtiCoIRcfHz9t8LNnz9KXL19o0aJF08LAKr5//15DUENuyZIldgPPmzePjhw5IgCHhoZocnJSAI+OjtLAwABVV1eTv7+/3XhYvZs3b+qTe/bsmQXQpk2b6Nu3b4TTytuHFrlrbGxMA6T38PPnT2prayM3NzdpHxwcTJjMhQsX5BhjZ2RkaGDkyp07d85CGfns5MmT9OvXL7p16xY5OjoSEjDLo0ePRN7DDfHmzRsxvGPHDnJ1daXc3FxWExPZunUr7dq1S/SfP3+um5pWr14tbdCR5BCQPAPzFjPHVoEk5Pv377RmzRpCnLBuV1eXeAcCPIa8dv/+fTHOtkhPSCWso7bAgx8WSc7Ly0vXgI2vXbvGNvThwweRAvgdWsQaZN++fRocbB8LQsFWNqisrGT1/1aus7NTA6g6RT80NFSuGscaDgAqEdZlxLS0NDEWEBBAnz9/5mFxkvGgFz6MgfbAgQPSRqwcVkVVMO9fuXJFGNy7d09sSUNDgwTAKqqzfffuHdXV1REOAwSTCQ8Pp6ioKPGMFTbHV5/Xr18vsQU5861QldHv6+sTBrgX8YzYKCkpkSBGHRDH4WA8JGlIYmKiHON3assrLsgtX77cUNnX11f6Xrp0qUbv9OnT8h1Wf+fOnTLFwIF6YOD86tWrQv/o0aMaHJUY+qh+IKaOjg6riiAOgTMYwiFSTHp6uiSiYmAXWLC9fn5+kiRiFAKS5oTUZ05DpoqKCquKTA6gzc3N7Nei9fHxEcVnTU2NxTsMYHJPnjwR74qLi6363Lhxo9AzpaamWijOnTuXkKO2bNmiSbqwQL6amJgQuQ7BzYEv0JQ/OAi4XcbHx3V1Dh48KFbVqPqBvQmVrbqk6L948UKQgPP29nbhAH71TvWNGzcUSn+6CxYs0OBie1levXpFONU/fvwQQyj5zTng9jHpldyLFy8m/NggJiZGgKDqUD9mQAC3BaS1tVXEId8EOTk50h44qPcgjY2NmnFciexHbe/cuUMm3IXqoFEfQQ9BtcETwtZAsM0oGmF7/fp1MYYvM9aLiIgQYyCOfGfkg8fx4YT0ZcLMPT09bRqsWLFCbgO2EjEJAhD1pnB3d5d6SUlJIm6FEhGVlpba9IMJlZWVCROR516/fm3zzsOstm/fLuOPHfb391s45FTAWw5drCivjLX28OHDDP2nKsGVZOs7FKBIGZiMKrA9ceIE4eSXl5fTx48f5WsQzM/Pt4tYQkKCtENHrByPXL58WSZMa7MLCgoSJiMjI3ILGYNbFJSQixcv2kVs3bp1bCpbDTmMHjp0yCYYlh71Pk4afoitvLw8UXFkZmbSypUrBQbK+Ldv3xJKemuT9fDwoMHBQUmKOxbk8CI2NtYQDAcDW5WdnW2ow0TwsYOTXFRUZKiLg8UFAZPiVpccsnpISIguID4BUa3aKk6Z4KVLl0Qi52e1xU1UW1vLXCxaXXLQ+vTpE2G5VbCZ7CNlnD9/3oKQOmBIDkr4EDG/hmaKIGLTmuDOtkoOxrgRbAX0VAmj7rMmTU1NtGfPHtvkAHLmzBl5FU2ViLk+YhkxrSf4dkY9uGHDBiooKLCPHIDq6+sJ93BYWNi0fps3byYUA0bE4OPBgwcUFxdHfI/b3Fa9Gf6fY/xvDfj458ipE/8N4La9bmMKQEYAAAAASUVORK5CYII=;" vertex="1" parent="1">
          <mxGeometry x="1000" y="1030" width="30" height="30" as="geometry" />
        </mxCell>
        <mxCell id="DSfeMCaSi8syM3B5AKMl-140" style="edgeStyle=orthogonalEdgeStyle;curved=1;rounded=0;orthogonalLoop=1;jettySize=auto;html=1;exitX=0.75;exitY=0;exitDx=0;exitDy=0;entryX=0.5;entryY=1;entryDx=0;entryDy=0;fontSize=11;" edge="1" parent="1" source="DSfeMCaSi8syM3B5AKMl-132" target="DSfeMCaSi8syM3B5AKMl-128">
          <mxGeometry relative="1" as="geometry" />
        </mxCell>
        <mxCell id="DSfeMCaSi8syM3B5AKMl-132" value="" style="shape=image;verticalLabelPosition=bottom;labelBackgroundColor=#ffffff;verticalAlign=top;aspect=fixed;imageAspect=0;image=data:image/png,iVBORw0KGgoAAAANSUhEUgAAACsAAAAzCAYAAAAO2PE2AAAHWElEQVRoBc3ZP+iNXxwH8DsYKIPBYDAoRFEMimJQFEVRDIqiKIqiKAZFGQwGg4GiDAaKogwGymAwGAwUZTAYDAaDQVHOr9epz+3c8z3Pvc/X/arfp27Pvc9zzue8P//e53OeO0hzIK9evUqXL19Ou3fvTitXrkwLFixIg8Egf5YuXZo2bdqUTp06lR48eJB+/Pjx1ysO/nbmt2/f0tWrV9OyZcuGwEqAa9asyc/mz58/8nzhwoXpzJkz6evXr7NeetZgeebixYupBrFkyZJ0/fr1xIhaPnz4kG7evJm2bt06BL5o0aL0+PHjeujY37MC+/Tp0+wtC50+fTodPXo0zZs3L509e7Z3eD99+pQOHz6c54kEA/tKL7BCtn///iSEV65cycAssnr16vT69eu+a42Me/v27TCF+gKeCFbxCLEQfv78OS8oDTZv3twM+QiiCT84gcGi0yclxoJ9+fJl9ubJkyfT79+/89LPnj1L27ZtSz9//pwApd9jaSGtRE1uj5NOsN+/f88elZchAO/bt693fsa8SVdelb/r168fOqU1pxMs3ly+fHn24Pv375MPrnzz5k1Lz9T3FB3AWKNLmmB5cMWKFZnMXSmRVxs2bOjSk+8z5N69e0lU+sqFCxcyDQYV8m6XzACLJ9euXZsByqPz58+nd+/eZQAURu6WCt07duxYnsOwLVu2lI87vyswhXvu3Lm0bt264XxM0ZIZYI8cOZInqdKo/phot6rveSavGXbp0qWkKH36SG34tWvX8trosSUjYHlVuIFqbYet+7wAKO/PhRw8eDDt2rWrqWoE7MOHD7NlXUmOYmrhBR6ZK8HrrXXoHwGLAeRcK9S8Lq9qobyLc+sw13PL32VRim75O8aNgI18jYfl1bZacm75rOs7Zugr0onhRLq10qo32Pv378+q6bDo8ePHZ2AVIdt1Lbo5+UqwSatIR8DynDRoyd27dxPAs5EbN24050inVoooLNsvOmutNYJMMw2sECgaxROcB2yfZqM0Ri7bVOqQ6uBu3749HGqNJ0+e5JMGh+3ZsydZr5YRsFgA2PrDCPnUt5U7dOhQNpRn5Z/CLUWIFy9ePOzajLEmFnj+/HlSOxPBxtaqmcaz8kjeUaTA7N99RLMTBusvhLaWHTt2pAMHDuTb1mJAsMpEsEJhAeDQhi3w1q1bObcc+nhHD9tXGPrly5fO4ejRZtLidGBxfi3DNJDQwFpAPkV/AKR+1jPK51JQm36j7uQU2Fg2kCPyiKjUjRs35mZYj6Ap9ry1WUwLXiSdRMrGW3dX/o41hp5V6XaOkMhPRSWk/0o4Rl7L4RBOG7uDKQKhjpDooEiLD0PpXF1RmaImQEaEa/1Dz3qgkByxybjiqJX0+S1yteF+ozeUFadkFNnVD4+AZZ2E/xe5qVBjU0FVQMZppMxPm5GCbskIWEpUfNl4A75z586p89apWE0oJg6xtQZ4HgYSfcrdrgZoBCxrVD2lFHqhBnxXM9yyvrwHwIsXL4aGSq0yapyDy3nYGjaFcZGdAdZivKBCFZxPqzJLUF3fhVcd0KFobKv428e2GvpFUjfGo8Z0SRNsDNbIUMgDsxVFIry8JT8RvSgFQBHkEHUSzjAmCry13liwYX2rXaOs675n8s/eX3M0YFKhZobY7oMVZg2WV3ij64Rg9ylzsF5AZBSUPuPRo0d5C7WNxqcEvH379vxaqtZR/h7rWQOFRb6VikOBPtV7r9YzY9yPri3CH9fSAVjB/XFepW8iWPmqQoNmAmhcea91TInnrnRIKZ0U0o8c9UyaRD8bLWI5t/w+EazBKEzydwna6duY1zrikMqztt2uKJk3FqyJvBaha7VtlPCOTsmJoq/w7t69e7NuKRGvj8YB7gQrXPgPUEVmowg+bAESahGw27VOBjFHqO/cuZPrgO7o7vBsrNcFeAZYFp84cSKD1GDovtzDlZTLL4vVlKTavRH0nGFoy19JXpV+/PgxHwj9S4MdIlKuMZYxDI5NpAV4BKw/OGKwcxRrS4l3qHYgi7r674s3SwBd3xkvvxUskA6WaM13PEvseuHhkjE8y2DlJqstgqZa5x+DeVOjIdwMsdfrf/3npcDokdeKBiD6dFCYAM2ZY2fTCwQ4eusC5eE4vJYOG+gDeIhiRdKnj3XIE25hB5aBdZ5aMCLBo0CKGmB1CilMfFxKvBYo8QwiZFw+jjZKRb6z2IYhhHR0zVWoKp13dWEcoi8ouVYDIxqlRFNe3htYrHUcLgeN+86jvFx7yxzejR2Mccbybm1YpE65jvSJ9wpxf4CWWgvFgD5XlVunQTlPEfGcQgS2Xo+na46OCJR6choYPI0orq6i5N1Vq1blHkJoeUw01Qkj/RehYMsNBxcbY24pGaxmZBpR2TXN0IeGUJwXbaUYzwAG+shpxRoCOIapZWAgKxA9D//tp85FRYMFYhvlfUeYCC8jYi3PSgw87l+iWgZxGghWmOaqj6AvOHIaXWVaBOjBnz9/0q9fv/53nwBYXv8DUFihpu+RNcgAAAAASUVORK5CYII=;" vertex="1" parent="1">
          <mxGeometry x="870" y="1040" width="25.29" height="30" as="geometry" />
        </mxCell>
        <mxCell id="DSfeMCaSi8syM3B5AKMl-141" value="Jenkins Master" style="text;html=1;strokeColor=none;fillColor=none;align=center;verticalAlign=middle;whiteSpace=wrap;rounded=0;fontSize=11;" vertex="1" parent="1">
          <mxGeometry x="853" y="1070" width="60" height="30" as="geometry" />
        </mxCell>
        <mxCell id="DSfeMCaSi8syM3B5AKMl-142" value="Jenkins Slave" style="text;html=1;strokeColor=none;fillColor=none;align=center;verticalAlign=middle;whiteSpace=wrap;rounded=0;fontSize=11;" vertex="1" parent="1">
          <mxGeometry x="929.5" y="940" width="60" height="30" as="geometry" />
        </mxCell>
        <mxCell id="DSfeMCaSi8syM3B5AKMl-144" value="Kubernetes" style="text;html=1;strokeColor=none;fillColor=none;align=center;verticalAlign=middle;whiteSpace=wrap;rounded=0;fontSize=11;" vertex="1" parent="1">
          <mxGeometry x="985" y="1050" width="60" height="30" as="geometry" />
        </mxCell>
        <mxCell id="DSfeMCaSi8syM3B5AKMl-145" value="" style="rounded=0;whiteSpace=wrap;html=1;strokeColor=default;fillColor=none;dashed=1;" vertex="1" parent="1">
          <mxGeometry x="1122.46" y="975" width="147.54" height="65" as="geometry" />
        </mxCell>
        <mxCell id="DSfeMCaSi8syM3B5AKMl-151" style="edgeStyle=orthogonalEdgeStyle;curved=1;rounded=0;orthogonalLoop=1;jettySize=auto;html=1;exitX=0.5;exitY=0;exitDx=0;exitDy=0;entryX=0.582;entryY=1.003;entryDx=0;entryDy=0;entryPerimeter=0;fontSize=11;strokeWidth=1;endArrow=none;endFill=0;strokeColor=default;dashed=1;" edge="1" parent="1" source="DSfeMCaSi8syM3B5AKMl-146" target="DSfeMCaSi8syM3B5AKMl-96">
          <mxGeometry relative="1" as="geometry" />
        </mxCell>
        <mxCell id="DSfeMCaSi8syM3B5AKMl-146" value="容器环境" style="text;html=1;strokeColor=none;fillColor=none;align=center;verticalAlign=middle;whiteSpace=wrap;rounded=0;fontSize=11;" vertex="1" parent="1">
          <mxGeometry x="1166.08" y="970" width="60" height="30" as="geometry" />
        </mxCell>
        <mxCell id="DSfeMCaSi8syM3B5AKMl-147" value="" style="sketch=0;html=1;dashed=0;whitespace=wrap;fillColor=#2875E2;strokeColor=#ffffff;points=[[0.005,0.63,0],[0.1,0.2,0],[0.9,0.2,0],[0.5,0,0],[0.995,0.63,0],[0.72,0.99,0],[0.5,1,0],[0.28,0.99,0]];shape=mxgraph.kubernetes.icon;prIcon=pod;align=left;" vertex="1" parent="1">
          <mxGeometry x="1134" y="996.25" width="25.84" height="27.5" as="geometry" />
        </mxCell>
        <mxCell id="DSfeMCaSi8syM3B5AKMl-148" value="" style="sketch=0;html=1;dashed=0;whitespace=wrap;fillColor=#2875E2;strokeColor=#ffffff;points=[[0.005,0.63,0],[0.1,0.2,0],[0.9,0.2,0],[0.5,0,0],[0.995,0.63,0],[0.72,0.99,0],[0.5,1,0],[0.28,0.99,0]];shape=mxgraph.kubernetes.icon;prIcon=pod;align=left;" vertex="1" parent="1">
          <mxGeometry x="1183.16" y="996.25" width="25.84" height="27.5" as="geometry" />
        </mxCell>
        <mxCell id="DSfeMCaSi8syM3B5AKMl-149" value="" style="sketch=0;html=1;dashed=0;whitespace=wrap;fillColor=#2875E2;strokeColor=#ffffff;points=[[0.005,0.63,0],[0.1,0.2,0],[0.9,0.2,0],[0.5,0,0],[0.995,0.63,0],[0.72,0.99,0],[0.5,1,0],[0.28,0.99,0]];shape=mxgraph.kubernetes.icon;prIcon=pod;align=left;" vertex="1" parent="1">
          <mxGeometry x="1228.16" y="996.25" width="25.84" height="27.5" as="geometry" />
        </mxCell>
        <mxCell id="DSfeMCaSi8syM3B5AKMl-152" value="RabbitMQ/&lt;br&gt;RocketMQ" style="rounded=0;whiteSpace=wrap;html=1;fontSize=11;strokeColor=#330000;fillColor=none;align=center;verticalAlign=top;" vertex="1" parent="1">
          <mxGeometry x="730" y="800" width="80" height="40" as="geometry" />
        </mxCell>
        <mxCell id="DSfeMCaSi8syM3B5AKMl-153" value="Redis" style="rounded=0;whiteSpace=wrap;html=1;fontSize=11;strokeColor=#330000;fillColor=none;align=center;verticalAlign=middle;" vertex="1" parent="1">
          <mxGeometry x="864" y="800" width="80" height="40" as="geometry" />
        </mxCell>
        <mxCell id="DSfeMCaSi8syM3B5AKMl-154" value="MySQL" style="rounded=0;whiteSpace=wrap;html=1;fontSize=11;strokeColor=#330000;fillColor=none;align=center;verticalAlign=middle;" vertex="1" parent="1">
          <mxGeometry x="1000" y="800" width="80" height="40" as="geometry" />
        </mxCell>
      </root>
    </mxGraphModel>
  </diagram>
</mxfile>
